<?xml version="1.0" encoding="utf-8" standalone="no"?>
<!DOCTYPE svg PUBLIC "-//W3C//DTD SVG 1.1//EN"
  "http://www.w3.org/Graphics/SVG/1.1/DTD/svg11.dtd">
<svg xmlns:xlink="http://www.w3.org/1999/xlink" width="332.182813pt" height="294.429688pt" viewBox="0 0 332.182813 294.429688" xmlns="http://www.w3.org/2000/svg" version="1.1">
 <metadata>
  <rdf:RDF xmlns:dc="http://purl.org/dc/elements/1.1/" xmlns:cc="http://creativecommons.org/ns#" xmlns:rdf="http://www.w3.org/1999/02/22-rdf-syntax-ns#">
   <cc:Work>
    <dc:type rdf:resource="http://purl.org/dc/dcmitype/StillImage"/>
    <dc:date>2022-11-15T15:38:35.245759</dc:date>
    <dc:format>image/svg+xml</dc:format>
    <dc:creator>
     <cc:Agent>
      <dc:title>Matplotlib v3.5.2, https://matplotlib.org/</dc:title>
     </cc:Agent>
    </dc:creator>
   </cc:Work>
  </rdf:RDF>
 </metadata>
 <defs>
  <style type="text/css">*{stroke-linejoin: round; stroke-linecap: butt}</style>
 </defs>
 <g id="figure_1">
  <g id="patch_1">
   <path d="M 0 294.429688 
L 332.182813 294.429688 
L 332.182813 0 
L 0 0 
z
" style="fill: #ffffff"/>
  </g>
  <g id="axes_1">
   <g id="patch_2">
    <path d="M 83.278906 244.078125 
L 306.478906 244.078125 
L 306.478906 22.318125 
L 83.278906 22.318125 
z
" style="fill: #ffffff"/>
   </g>
   <g id="line2d_1">
    <path d="M 83.278906 216.690183 
L 85.510906 204.933034 
L 87.742906 193.577036 
L 89.974906 182.621863 
L 92.206906 172.067071 
L 94.438906 161.912089 
L 96.670906 152.156217 
L 98.902906 142.798616 
L 101.134906 133.83831 
L 103.366906 125.274171 
L 105.598906 117.104921 
L 107.830906 109.329123 
L 110.062906 101.945174 
L 112.294906 94.951305 
L 114.526906 88.345567 
L 116.758906 82.125833 
L 118.990906 76.289787 
L 121.222906 70.834923 
L 123.454906 65.758534 
L 125.686906 61.057712 
L 127.918906 56.72934 
L 130.150906 52.770085 
L 132.382906 49.176396 
L 134.614906 45.944498 
L 136.846906 43.070386 
L 139.078906 40.549823 
L 141.310906 38.378331 
L 143.542906 36.551191 
L 145.774906 35.063438 
L 148.006906 33.909854 
L 150.238906 33.084969 
L 152.470906 32.583055 
L 154.702906 32.398125 
L 156.934906 32.523927 
L 159.166906 32.953944 
L 161.398906 33.681394 
L 163.630906 34.699225 
L 165.862906 36.000114 
L 168.094906 37.57647 
L 170.326906 39.420429 
L 172.558906 41.523859 
L 174.790906 43.878355 
L 177.022906 46.475246 
L 179.254906 49.305592 
L 181.486906 52.360189 
L 183.718906 55.629569 
L 185.950906 59.104008 
L 188.182906 62.773523 
L 190.414906 66.627883 
L 192.646906 70.656609 
L 194.878906 74.848982 
L 197.110906 79.194046 
L 199.342906 83.68062 
L 201.574906 88.2973 
L 203.806906 93.032467 
L 206.038906 97.874299 
L 208.270906 102.810777 
L 210.502906 107.829692 
L 212.734906 112.91866 
L 214.966906 118.06513 
L 217.198906 123.256392 
L 219.430906 128.479592 
L 221.662906 133.721742 
L 223.894906 138.969734 
L 226.126906 144.21035 
L 228.358906 149.430274 
L 230.590906 154.616111 
L 232.822906 159.754395 
L 235.054906 164.831603 
L 237.286906 169.834175 
L 239.518906 174.74852 
L 241.750906 179.561037 
L 243.982906 184.258127 
L 246.214906 188.826209 
L 248.446906 193.251731 
L 250.678906 197.521193 
L 252.910906 201.621152 
L 255.142906 205.538245 
L 257.374906 209.259199 
L 259.606906 212.770848 
L 261.838906 216.060145 
L 264.070906 219.114179 
L 266.302906 221.920189 
L 268.534906 224.465574 
L 270.766906 226.737911 
L 272.998906 228.724965 
L 275.230906 230.414702 
L 277.462906 231.795305 
L 279.694906 232.85518 
L 281.926906 233.582971 
L 284.158906 233.967569 
L 286.390906 233.998125 
L 288.622906 233.664056 
L 290.854906 232.955056 
L 293.086906 231.861106 
L 295.318906 230.37248 
L 297.550906 228.479751 
L 299.782906 226.173803 
L 302.014906 223.445829 
L 304.246906 220.287343 
L 306.478906 216.690183 
" clip-path="url(#p156ac27732)" style="fill: none; stroke: #0000ff; stroke-width: 3; stroke-linecap: square"/>
   </g>
   <g id="PathCollection_1">
    <defs>
     <path id="m77c2b80b62" d="M 0 2.236068 
C 0.593012 2.236068 1.161816 2.000462 1.581139 1.581139 
C 2.000462 1.161816 2.236068 0.593012 2.236068 0 
C 2.236068 -0.593012 2.000462 -1.161816 1.581139 -1.581139 
C 1.161816 -2.000462 0.593012 -2.236068 0 -2.236068 
C -0.593012 -2.236068 -1.161816 -2.000462 -1.581139 -1.581139 
C -2.000462 -1.161816 -2.236068 -0.593012 -2.236068 0 
C -2.236068 0.593012 -2.000462 1.161816 -1.581139 1.581139 
C -1.161816 2.000462 -0.593012 2.236068 0 2.236068 
z
" style="stroke: #0000ff; stroke-width: 3"/>
    </defs>
    <g clip-path="url(#p156ac27732)">
     <use xlink:href="#m77c2b80b62" x="83.278906" y="216.690183" style="fill: #ffffff; stroke: #0000ff; stroke-width: 3"/>
     <use xlink:href="#m77c2b80b62" x="87.742906" y="193.577036" style="fill: #ffffff; stroke: #0000ff; stroke-width: 3"/>
     <use xlink:href="#m77c2b80b62" x="92.206906" y="172.067071" style="fill: #ffffff; stroke: #0000ff; stroke-width: 3"/>
     <use xlink:href="#m77c2b80b62" x="96.670906" y="152.156217" style="fill: #ffffff; stroke: #0000ff; stroke-width: 3"/>
     <use xlink:href="#m77c2b80b62" x="101.134906" y="133.83831" style="fill: #ffffff; stroke: #0000ff; stroke-width: 3"/>
     <use xlink:href="#m77c2b80b62" x="105.598906" y="117.104921" style="fill: #ffffff; stroke: #0000ff; stroke-width: 3"/>
     <use xlink:href="#m77c2b80b62" x="110.062906" y="101.945174" style="fill: #ffffff; stroke: #0000ff; stroke-width: 3"/>
     <use xlink:href="#m77c2b80b62" x="114.526906" y="88.345567" style="fill: #ffffff; stroke: #0000ff; stroke-width: 3"/>
     <use xlink:href="#m77c2b80b62" x="118.990906" y="76.289787" style="fill: #ffffff; stroke: #0000ff; stroke-width: 3"/>
     <use xlink:href="#m77c2b80b62" x="123.454906" y="65.758534" style="fill: #ffffff; stroke: #0000ff; stroke-width: 3"/>
     <use xlink:href="#m77c2b80b62" x="127.918906" y="56.72934" style="fill: #ffffff; stroke: #0000ff; stroke-width: 3"/>
     <use xlink:href="#m77c2b80b62" x="132.382906" y="49.176396" style="fill: #ffffff; stroke: #0000ff; stroke-width: 3"/>
     <use xlink:href="#m77c2b80b62" x="136.846906" y="43.070386" style="fill: #ffffff; stroke: #0000ff; stroke-width: 3"/>
     <use xlink:href="#m77c2b80b62" x="141.310906" y="38.378331" style="fill: #ffffff; stroke: #0000ff; stroke-width: 3"/>
     <use xlink:href="#m77c2b80b62" x="145.774906" y="35.063438" style="fill: #ffffff; stroke: #0000ff; stroke-width: 3"/>
     <use xlink:href="#m77c2b80b62" x="150.238906" y="33.084969" style="fill: #ffffff; stroke: #0000ff; stroke-width: 3"/>
     <use xlink:href="#m77c2b80b62" x="154.702906" y="32.398125" style="fill: #ffffff; stroke: #0000ff; stroke-width: 3"/>
     <use xlink:href="#m77c2b80b62" x="159.166906" y="32.953944" style="fill: #ffffff; stroke: #0000ff; stroke-width: 3"/>
     <use xlink:href="#m77c2b80b62" x="163.630906" y="34.699225" style="fill: #ffffff; stroke: #0000ff; stroke-width: 3"/>
     <use xlink:href="#m77c2b80b62" x="168.094906" y="37.57647" style="fill: #ffffff; stroke: #0000ff; stroke-width: 3"/>
     <use xlink:href="#m77c2b80b62" x="172.558906" y="41.523859" style="fill: #ffffff; stroke: #0000ff; stroke-width: 3"/>
     <use xlink:href="#m77c2b80b62" x="177.022906" y="46.475246" style="fill: #ffffff; stroke: #0000ff; stroke-width: 3"/>
     <use xlink:href="#m77c2b80b62" x="181.486906" y="52.360189" style="fill: #ffffff; stroke: #0000ff; stroke-width: 3"/>
     <use xlink:href="#m77c2b80b62" x="185.950906" y="59.104008" style="fill: #ffffff; stroke: #0000ff; stroke-width: 3"/>
     <use xlink:href="#m77c2b80b62" x="190.414906" y="66.627883" style="fill: #ffffff; stroke: #0000ff; stroke-width: 3"/>
     <use xlink:href="#m77c2b80b62" x="194.878906" y="74.848982" style="fill: #ffffff; stroke: #0000ff; stroke-width: 3"/>
     <use xlink:href="#m77c2b80b62" x="199.342906" y="83.68062" style="fill: #ffffff; stroke: #0000ff; stroke-width: 3"/>
     <use xlink:href="#m77c2b80b62" x="203.806906" y="93.032467" style="fill: #ffffff; stroke: #0000ff; stroke-width: 3"/>
     <use xlink:href="#m77c2b80b62" x="208.270906" y="102.810777" style="fill: #ffffff; stroke: #0000ff; stroke-width: 3"/>
     <use xlink:href="#m77c2b80b62" x="212.734906" y="112.91866" style="fill: #ffffff; stroke: #0000ff; stroke-width: 3"/>
     <use xlink:href="#m77c2b80b62" x="217.198906" y="123.256392" style="fill: #ffffff; stroke: #0000ff; stroke-width: 3"/>
     <use xlink:href="#m77c2b80b62" x="221.662906" y="133.721742" style="fill: #ffffff; stroke: #0000ff; stroke-width: 3"/>
     <use xlink:href="#m77c2b80b62" x="226.126906" y="144.21035" style="fill: #ffffff; stroke: #0000ff; stroke-width: 3"/>
     <use xlink:href="#m77c2b80b62" x="230.590906" y="154.616111" style="fill: #ffffff; stroke: #0000ff; stroke-width: 3"/>
     <use xlink:href="#m77c2b80b62" x="235.054906" y="164.831603" style="fill: #ffffff; stroke: #0000ff; stroke-width: 3"/>
     <use xlink:href="#m77c2b80b62" x="239.518906" y="174.74852" style="fill: #ffffff; stroke: #0000ff; stroke-width: 3"/>
     <use xlink:href="#m77c2b80b62" x="243.982906" y="184.258127" style="fill: #ffffff; stroke: #0000ff; stroke-width: 3"/>
     <use xlink:href="#m77c2b80b62" x="248.446906" y="193.251731" style="fill: #ffffff; stroke: #0000ff; stroke-width: 3"/>
     <use xlink:href="#m77c2b80b62" x="252.910906" y="201.621152" style="fill: #ffffff; stroke: #0000ff; stroke-width: 3"/>
     <use xlink:href="#m77c2b80b62" x="257.374906" y="209.259199" style="fill: #ffffff; stroke: #0000ff; stroke-width: 3"/>
     <use xlink:href="#m77c2b80b62" x="261.838906" y="216.060145" style="fill: #ffffff; stroke: #0000ff; stroke-width: 3"/>
     <use xlink:href="#m77c2b80b62" x="266.302906" y="221.920189" style="fill: #ffffff; stroke: #0000ff; stroke-width: 3"/>
     <use xlink:href="#m77c2b80b62" x="270.766906" y="226.737911" style="fill: #ffffff; stroke: #0000ff; stroke-width: 3"/>
     <use xlink:href="#m77c2b80b62" x="275.230906" y="230.414702" style="fill: #ffffff; stroke: #0000ff; stroke-width: 3"/>
     <use xlink:href="#m77c2b80b62" x="279.694906" y="232.85518" style="fill: #ffffff; stroke: #0000ff; stroke-width: 3"/>
     <use xlink:href="#m77c2b80b62" x="284.158906" y="233.967569" style="fill: #ffffff; stroke: #0000ff; stroke-width: 3"/>
     <use xlink:href="#m77c2b80b62" x="288.622906" y="233.664056" style="fill: #ffffff; stroke: #0000ff; stroke-width: 3"/>
     <use xlink:href="#m77c2b80b62" x="293.086906" y="231.861106" style="fill: #ffffff; stroke: #0000ff; stroke-width: 3"/>
     <use xlink:href="#m77c2b80b62" x="297.550906" y="228.479751" style="fill: #ffffff; stroke: #0000ff; stroke-width: 3"/>
     <use xlink:href="#m77c2b80b62" x="302.014906" y="223.445829" style="fill: #ffffff; stroke: #0000ff; stroke-width: 3"/>
     <use xlink:href="#m77c2b80b62" x="306.478906" y="216.690183" style="fill: #ffffff; stroke: #0000ff; stroke-width: 3"/>
    </g>
   </g>
   <g id="line2d_2">
    <path d="M 83.278906 216.690183 
L 306.478906 216.690183 
" clip-path="url(#p156ac27732)" style="fill: none; stroke: #000000; stroke-width: 3; stroke-linecap: square"/>
   </g>
   <g id="matplotlib.axis_1">
    <g id="xtick_1">
     <g id="line2d_3">
      <defs>
       <path id="m2da18ce628" d="M 0 0 
L 0 -7 
" style="stroke: #000000; stroke-width: 2"/>
      </defs>
      <g>
       <use xlink:href="#m2da18ce628" x="83.278906" y="244.078125" style="stroke: #000000; stroke-width: 2"/>
      </g>
     </g>
     <g id="line2d_4">
      <defs>
       <path id="mcd1385f1e5" d="M 0 0 
L 0 7 
" style="stroke: #000000; stroke-width: 2"/>
      </defs>
      <g>
       <use xlink:href="#mcd1385f1e5" x="83.278906" y="22.318125" style="stroke: #000000; stroke-width: 2"/>
      </g>
     </g>
     <g id="text_1">
      <!-- 0.00 -->
      <g transform="translate(64.775 265.475781)scale(0.15 -0.15)">
       <defs>
        <path id="DejaVuSans-Bold-30" d="M 2944 2338 
Q 2944 3213 2780 3570 
Q 2616 3928 2228 3928 
Q 1841 3928 1675 3570 
Q 1509 3213 1509 2338 
Q 1509 1453 1675 1090 
Q 1841 728 2228 728 
Q 2613 728 2778 1090 
Q 2944 1453 2944 2338 
z
M 4147 2328 
Q 4147 1169 3647 539 
Q 3147 -91 2228 -91 
Q 1306 -91 806 539 
Q 306 1169 306 2328 
Q 306 3491 806 4120 
Q 1306 4750 2228 4750 
Q 3147 4750 3647 4120 
Q 4147 3491 4147 2328 
z
" transform="scale(0.015625)"/>
        <path id="DejaVuSans-Bold-2e" d="M 653 1209 
L 1778 1209 
L 1778 0 
L 653 0 
L 653 1209 
z
" transform="scale(0.015625)"/>
       </defs>
       <use xlink:href="#DejaVuSans-Bold-30"/>
       <use xlink:href="#DejaVuSans-Bold-2e" x="69.580078"/>
       <use xlink:href="#DejaVuSans-Bold-30" x="107.568359"/>
       <use xlink:href="#DejaVuSans-Bold-30" x="177.148438"/>
      </g>
     </g>
    </g>
    <g id="xtick_2">
     <g id="line2d_5">
      <g>
       <use xlink:href="#m2da18ce628" x="139.078906" y="244.078125" style="stroke: #000000; stroke-width: 2"/>
      </g>
     </g>
     <g id="line2d_6">
      <g>
       <use xlink:href="#mcd1385f1e5" x="139.078906" y="22.318125" style="stroke: #000000; stroke-width: 2"/>
      </g>
     </g>
     <g id="text_2">
      <!-- 0.25 -->
      <g transform="translate(120.575 265.475781)scale(0.15 -0.15)">
       <defs>
        <path id="DejaVuSans-Bold-32" d="M 1844 884 
L 3897 884 
L 3897 0 
L 506 0 
L 506 884 
L 2209 2388 
Q 2438 2594 2547 2791 
Q 2656 2988 2656 3200 
Q 2656 3528 2436 3728 
Q 2216 3928 1850 3928 
Q 1569 3928 1234 3808 
Q 900 3688 519 3450 
L 519 4475 
Q 925 4609 1322 4679 
Q 1719 4750 2100 4750 
Q 2938 4750 3402 4381 
Q 3866 4013 3866 3353 
Q 3866 2972 3669 2642 
Q 3472 2313 2841 1759 
L 1844 884 
z
" transform="scale(0.015625)"/>
        <path id="DejaVuSans-Bold-35" d="M 678 4666 
L 3669 4666 
L 3669 3781 
L 1638 3781 
L 1638 3059 
Q 1775 3097 1914 3117 
Q 2053 3138 2203 3138 
Q 3056 3138 3531 2711 
Q 4006 2284 4006 1522 
Q 4006 766 3489 337 
Q 2972 -91 2053 -91 
Q 1656 -91 1267 -14 
Q 878 63 494 219 
L 494 1166 
Q 875 947 1217 837 
Q 1559 728 1863 728 
Q 2300 728 2551 942 
Q 2803 1156 2803 1522 
Q 2803 1891 2551 2103 
Q 2300 2316 1863 2316 
Q 1603 2316 1309 2248 
Q 1016 2181 678 2041 
L 678 4666 
z
" transform="scale(0.015625)"/>
       </defs>
       <use xlink:href="#DejaVuSans-Bold-30"/>
       <use xlink:href="#DejaVuSans-Bold-2e" x="69.580078"/>
       <use xlink:href="#DejaVuSans-Bold-32" x="107.568359"/>
       <use xlink:href="#DejaVuSans-Bold-35" x="177.148438"/>
      </g>
     </g>
    </g>
    <g id="xtick_3">
     <g id="line2d_7">
      <g>
       <use xlink:href="#m2da18ce628" x="194.878906" y="244.078125" style="stroke: #000000; stroke-width: 2"/>
      </g>
     </g>
     <g id="line2d_8">
      <g>
       <use xlink:href="#mcd1385f1e5" x="194.878906" y="22.318125" style="stroke: #000000; stroke-width: 2"/>
      </g>
     </g>
     <g id="text_3">
      <!-- 0.50 -->
      <g transform="translate(176.375 265.475781)scale(0.15 -0.15)">
       <use xlink:href="#DejaVuSans-Bold-30"/>
       <use xlink:href="#DejaVuSans-Bold-2e" x="69.580078"/>
       <use xlink:href="#DejaVuSans-Bold-35" x="107.568359"/>
       <use xlink:href="#DejaVuSans-Bold-30" x="177.148438"/>
      </g>
     </g>
    </g>
    <g id="xtick_4">
     <g id="line2d_9">
      <g>
       <use xlink:href="#m2da18ce628" x="250.678906" y="244.078125" style="stroke: #000000; stroke-width: 2"/>
      </g>
     </g>
     <g id="line2d_10">
      <g>
       <use xlink:href="#mcd1385f1e5" x="250.678906" y="22.318125" style="stroke: #000000; stroke-width: 2"/>
      </g>
     </g>
     <g id="text_4">
      <!-- 0.75 -->
      <g transform="translate(232.175 265.475781)scale(0.15 -0.15)">
       <defs>
        <path id="DejaVuSans-Bold-37" d="M 428 4666 
L 3944 4666 
L 3944 3988 
L 2125 0 
L 953 0 
L 2675 3781 
L 428 3781 
L 428 4666 
z
" transform="scale(0.015625)"/>
       </defs>
       <use xlink:href="#DejaVuSans-Bold-30"/>
       <use xlink:href="#DejaVuSans-Bold-2e" x="69.580078"/>
       <use xlink:href="#DejaVuSans-Bold-37" x="107.568359"/>
       <use xlink:href="#DejaVuSans-Bold-35" x="177.148438"/>
      </g>
     </g>
    </g>
    <g id="xtick_5">
     <g id="line2d_11">
      <g>
       <use xlink:href="#m2da18ce628" x="306.478906" y="244.078125" style="stroke: #000000; stroke-width: 2"/>
      </g>
     </g>
     <g id="line2d_12">
      <g>
       <use xlink:href="#mcd1385f1e5" x="306.478906" y="22.318125" style="stroke: #000000; stroke-width: 2"/>
      </g>
     </g>
     <g id="text_5">
      <!-- 1.00 -->
      <g transform="translate(287.975 265.475781)scale(0.15 -0.15)">
       <defs>
        <path id="DejaVuSans-Bold-31" d="M 750 831 
L 1813 831 
L 1813 3847 
L 722 3622 
L 722 4441 
L 1806 4666 
L 2950 4666 
L 2950 831 
L 4013 831 
L 4013 0 
L 750 0 
L 750 831 
z
" transform="scale(0.015625)"/>
       </defs>
       <use xlink:href="#DejaVuSans-Bold-31"/>
       <use xlink:href="#DejaVuSans-Bold-2e" x="69.580078"/>
       <use xlink:href="#DejaVuSans-Bold-30" x="107.568359"/>
       <use xlink:href="#DejaVuSans-Bold-30" x="177.148438"/>
      </g>
     </g>
    </g>
    <g id="xtick_6">
     <g id="line2d_13">
      <defs>
       <path id="m5e898cd5d7" d="M 0 0 
L 0 -4 
" style="stroke: #000000; stroke-width: 2"/>
      </defs>
      <g>
       <use xlink:href="#m5e898cd5d7" x="111.178906" y="244.078125" style="stroke: #000000; stroke-width: 2"/>
      </g>
     </g>
     <g id="line2d_14">
      <defs>
       <path id="m8b7cf5ed10" d="M 0 0 
L 0 4 
" style="stroke: #000000; stroke-width: 2"/>
      </defs>
      <g>
       <use xlink:href="#m8b7cf5ed10" x="111.178906" y="22.318125" style="stroke: #000000; stroke-width: 2"/>
      </g>
     </g>
    </g>
    <g id="xtick_7">
     <g id="line2d_15">
      <g>
       <use xlink:href="#m5e898cd5d7" x="166.978906" y="244.078125" style="stroke: #000000; stroke-width: 2"/>
      </g>
     </g>
     <g id="line2d_16">
      <g>
       <use xlink:href="#m8b7cf5ed10" x="166.978906" y="22.318125" style="stroke: #000000; stroke-width: 2"/>
      </g>
     </g>
    </g>
    <g id="xtick_8">
     <g id="line2d_17">
      <g>
       <use xlink:href="#m5e898cd5d7" x="222.778906" y="244.078125" style="stroke: #000000; stroke-width: 2"/>
      </g>
     </g>
     <g id="line2d_18">
      <g>
       <use xlink:href="#m8b7cf5ed10" x="222.778906" y="22.318125" style="stroke: #000000; stroke-width: 2"/>
      </g>
     </g>
    </g>
    <g id="xtick_9">
     <g id="line2d_19">
      <g>
       <use xlink:href="#m5e898cd5d7" x="278.578906" y="244.078125" style="stroke: #000000; stroke-width: 2"/>
      </g>
     </g>
     <g id="line2d_20">
      <g>
       <use xlink:href="#m8b7cf5ed10" x="278.578906" y="22.318125" style="stroke: #000000; stroke-width: 2"/>
      </g>
     </g>
    </g>
    <g id="text_6">
     <!-- frequency of hawks (k/Z) -->
     <g transform="translate(89.311719 283.992969)scale(0.15 -0.15)">
      <defs>
       <path id="DejaVuSans-Bold-66" d="M 2841 4863 
L 2841 4128 
L 2222 4128 
Q 1984 4128 1890 4042 
Q 1797 3956 1797 3744 
L 1797 3500 
L 2753 3500 
L 2753 2700 
L 1797 2700 
L 1797 0 
L 678 0 
L 678 2700 
L 122 2700 
L 122 3500 
L 678 3500 
L 678 3744 
Q 678 4316 997 4589 
Q 1316 4863 1984 4863 
L 2841 4863 
z
" transform="scale(0.015625)"/>
       <path id="DejaVuSans-Bold-72" d="M 3138 2547 
Q 2991 2616 2845 2648 
Q 2700 2681 2553 2681 
Q 2122 2681 1889 2404 
Q 1656 2128 1656 1613 
L 1656 0 
L 538 0 
L 538 3500 
L 1656 3500 
L 1656 2925 
Q 1872 3269 2151 3426 
Q 2431 3584 2822 3584 
Q 2878 3584 2943 3579 
Q 3009 3575 3134 3559 
L 3138 2547 
z
" transform="scale(0.015625)"/>
       <path id="DejaVuSans-Bold-65" d="M 4031 1759 
L 4031 1441 
L 1416 1441 
Q 1456 1047 1700 850 
Q 1944 653 2381 653 
Q 2734 653 3104 758 
Q 3475 863 3866 1075 
L 3866 213 
Q 3469 63 3072 -14 
Q 2675 -91 2278 -91 
Q 1328 -91 801 392 
Q 275 875 275 1747 
Q 275 2603 792 3093 
Q 1309 3584 2216 3584 
Q 3041 3584 3536 3087 
Q 4031 2591 4031 1759 
z
M 2881 2131 
Q 2881 2450 2695 2645 
Q 2509 2841 2209 2841 
Q 1884 2841 1681 2658 
Q 1478 2475 1428 2131 
L 2881 2131 
z
" transform="scale(0.015625)"/>
       <path id="DejaVuSans-Bold-71" d="M 2181 2772 
Q 1825 2772 1636 2509 
Q 1447 2247 1447 1747 
Q 1447 1247 1636 984 
Q 1825 722 2181 722 
Q 2541 722 2730 984 
Q 2919 1247 2919 1747 
Q 2919 2247 2730 2509 
Q 2541 2772 2181 2772 
z
M 2919 506 
Q 2688 197 2409 53 
Q 2131 -91 1766 -91 
Q 1119 -91 703 423 
Q 288 938 288 1747 
Q 288 2556 703 3067 
Q 1119 3578 1766 3578 
Q 2131 3578 2409 3434 
Q 2688 3291 2919 2981 
L 2919 3500 
L 4044 3500 
L 4044 -1331 
L 2919 -1331 
L 2919 506 
z
" transform="scale(0.015625)"/>
       <path id="DejaVuSans-Bold-75" d="M 500 1363 
L 500 3500 
L 1625 3500 
L 1625 3150 
Q 1625 2866 1622 2436 
Q 1619 2006 1619 1863 
Q 1619 1441 1641 1255 
Q 1663 1069 1716 984 
Q 1784 875 1895 815 
Q 2006 756 2150 756 
Q 2500 756 2700 1025 
Q 2900 1294 2900 1772 
L 2900 3500 
L 4019 3500 
L 4019 0 
L 2900 0 
L 2900 506 
Q 2647 200 2364 54 
Q 2081 -91 1741 -91 
Q 1134 -91 817 281 
Q 500 653 500 1363 
z
" transform="scale(0.015625)"/>
       <path id="DejaVuSans-Bold-6e" d="M 4056 2131 
L 4056 0 
L 2931 0 
L 2931 347 
L 2931 1631 
Q 2931 2084 2911 2256 
Q 2891 2428 2841 2509 
Q 2775 2619 2662 2680 
Q 2550 2741 2406 2741 
Q 2056 2741 1856 2470 
Q 1656 2200 1656 1722 
L 1656 0 
L 538 0 
L 538 3500 
L 1656 3500 
L 1656 2988 
Q 1909 3294 2193 3439 
Q 2478 3584 2822 3584 
Q 3428 3584 3742 3212 
Q 4056 2841 4056 2131 
z
" transform="scale(0.015625)"/>
       <path id="DejaVuSans-Bold-63" d="M 3366 3391 
L 3366 2478 
Q 3138 2634 2908 2709 
Q 2678 2784 2431 2784 
Q 1963 2784 1702 2511 
Q 1441 2238 1441 1747 
Q 1441 1256 1702 982 
Q 1963 709 2431 709 
Q 2694 709 2930 787 
Q 3166 866 3366 1019 
L 3366 103 
Q 3103 6 2833 -42 
Q 2563 -91 2291 -91 
Q 1344 -91 809 395 
Q 275 881 275 1747 
Q 275 2613 809 3098 
Q 1344 3584 2291 3584 
Q 2566 3584 2833 3536 
Q 3100 3488 3366 3391 
z
" transform="scale(0.015625)"/>
       <path id="DejaVuSans-Bold-79" d="M 78 3500 
L 1197 3500 
L 2138 1125 
L 2938 3500 
L 4056 3500 
L 2584 -331 
Q 2363 -916 2067 -1148 
Q 1772 -1381 1288 -1381 
L 641 -1381 
L 641 -647 
L 991 -647 
Q 1275 -647 1404 -556 
Q 1534 -466 1606 -231 
L 1638 -134 
L 78 3500 
z
" transform="scale(0.015625)"/>
       <path id="DejaVuSans-Bold-20" transform="scale(0.015625)"/>
       <path id="DejaVuSans-Bold-6f" d="M 2203 2784 
Q 1831 2784 1636 2517 
Q 1441 2250 1441 1747 
Q 1441 1244 1636 976 
Q 1831 709 2203 709 
Q 2569 709 2762 976 
Q 2956 1244 2956 1747 
Q 2956 2250 2762 2517 
Q 2569 2784 2203 2784 
z
M 2203 3584 
Q 3106 3584 3614 3096 
Q 4122 2609 4122 1747 
Q 4122 884 3614 396 
Q 3106 -91 2203 -91 
Q 1297 -91 786 396 
Q 275 884 275 1747 
Q 275 2609 786 3096 
Q 1297 3584 2203 3584 
z
" transform="scale(0.015625)"/>
       <path id="DejaVuSans-Bold-68" d="M 4056 2131 
L 4056 0 
L 2931 0 
L 2931 347 
L 2931 1625 
Q 2931 2084 2911 2256 
Q 2891 2428 2841 2509 
Q 2775 2619 2662 2680 
Q 2550 2741 2406 2741 
Q 2056 2741 1856 2470 
Q 1656 2200 1656 1722 
L 1656 0 
L 538 0 
L 538 4863 
L 1656 4863 
L 1656 2988 
Q 1909 3294 2193 3439 
Q 2478 3584 2822 3584 
Q 3428 3584 3742 3212 
Q 4056 2841 4056 2131 
z
" transform="scale(0.015625)"/>
       <path id="DejaVuSans-Bold-61" d="M 2106 1575 
Q 1756 1575 1579 1456 
Q 1403 1338 1403 1106 
Q 1403 894 1545 773 
Q 1688 653 1941 653 
Q 2256 653 2472 879 
Q 2688 1106 2688 1447 
L 2688 1575 
L 2106 1575 
z
M 3816 1997 
L 3816 0 
L 2688 0 
L 2688 519 
Q 2463 200 2181 54 
Q 1900 -91 1497 -91 
Q 953 -91 614 226 
Q 275 544 275 1050 
Q 275 1666 698 1953 
Q 1122 2241 2028 2241 
L 2688 2241 
L 2688 2328 
Q 2688 2594 2478 2717 
Q 2269 2841 1825 2841 
Q 1466 2841 1156 2769 
Q 847 2697 581 2553 
L 581 3406 
Q 941 3494 1303 3539 
Q 1666 3584 2028 3584 
Q 2975 3584 3395 3211 
Q 3816 2838 3816 1997 
z
" transform="scale(0.015625)"/>
       <path id="DejaVuSans-Bold-77" d="M 225 3500 
L 1313 3500 
L 1900 1088 
L 2491 3500 
L 3425 3500 
L 4013 1113 
L 4603 3500 
L 5691 3500 
L 4769 0 
L 3547 0 
L 2956 2406 
L 2369 0 
L 1147 0 
L 225 3500 
z
" transform="scale(0.015625)"/>
       <path id="DejaVuSans-Bold-6b" d="M 538 4863 
L 1656 4863 
L 1656 2216 
L 2944 3500 
L 4244 3500 
L 2534 1894 
L 4378 0 
L 3022 0 
L 1656 1459 
L 1656 0 
L 538 0 
L 538 4863 
z
" transform="scale(0.015625)"/>
       <path id="DejaVuSans-Bold-73" d="M 3272 3391 
L 3272 2541 
Q 2913 2691 2578 2766 
Q 2244 2841 1947 2841 
Q 1628 2841 1473 2761 
Q 1319 2681 1319 2516 
Q 1319 2381 1436 2309 
Q 1553 2238 1856 2203 
L 2053 2175 
Q 2913 2066 3209 1816 
Q 3506 1566 3506 1031 
Q 3506 472 3093 190 
Q 2681 -91 1863 -91 
Q 1516 -91 1145 -36 
Q 775 19 384 128 
L 384 978 
Q 719 816 1070 734 
Q 1422 653 1784 653 
Q 2113 653 2278 743 
Q 2444 834 2444 1013 
Q 2444 1163 2330 1236 
Q 2216 1309 1875 1350 
L 1678 1375 
Q 931 1469 631 1722 
Q 331 1975 331 2491 
Q 331 3047 712 3315 
Q 1094 3584 1881 3584 
Q 2191 3584 2531 3537 
Q 2872 3491 3272 3391 
z
" transform="scale(0.015625)"/>
       <path id="DejaVuSans-Bold-28" d="M 2413 -844 
L 1484 -844 
Q 1006 -72 778 623 
Q 550 1319 550 2003 
Q 550 2688 779 3389 
Q 1009 4091 1484 4856 
L 2413 4856 
Q 2013 4116 1813 3408 
Q 1613 2700 1613 2009 
Q 1613 1319 1811 609 
Q 2009 -100 2413 -844 
z
" transform="scale(0.015625)"/>
       <path id="DejaVuSans-Bold-2f" d="M 1644 4666 
L 2338 4666 
L 691 -594 
L 0 -594 
L 1644 4666 
z
" transform="scale(0.015625)"/>
       <path id="DejaVuSans-Bold-5a" d="M 359 4666 
L 4281 4666 
L 4281 3938 
L 1778 909 
L 4353 909 
L 4353 0 
L 288 0 
L 288 728 
L 2791 3756 
L 359 3756 
L 359 4666 
z
" transform="scale(0.015625)"/>
       <path id="DejaVuSans-Bold-29" d="M 513 -844 
Q 913 -100 1113 609 
Q 1313 1319 1313 2009 
Q 1313 2700 1113 3408 
Q 913 4116 513 4856 
L 1441 4856 
Q 1916 4091 2145 3389 
Q 2375 2688 2375 2003 
Q 2375 1319 2147 623 
Q 1919 -72 1441 -844 
L 513 -844 
z
" transform="scale(0.015625)"/>
      </defs>
      <use xlink:href="#DejaVuSans-Bold-66"/>
      <use xlink:href="#DejaVuSans-Bold-72" x="43.505859"/>
      <use xlink:href="#DejaVuSans-Bold-65" x="92.822266"/>
      <use xlink:href="#DejaVuSans-Bold-71" x="160.644531"/>
      <use xlink:href="#DejaVuSans-Bold-75" x="232.226562"/>
      <use xlink:href="#DejaVuSans-Bold-65" x="303.417969"/>
      <use xlink:href="#DejaVuSans-Bold-6e" x="371.240234"/>
      <use xlink:href="#DejaVuSans-Bold-63" x="442.431641"/>
      <use xlink:href="#DejaVuSans-Bold-79" x="501.708984"/>
      <use xlink:href="#DejaVuSans-Bold-20" x="566.894531"/>
      <use xlink:href="#DejaVuSans-Bold-6f" x="601.708984"/>
      <use xlink:href="#DejaVuSans-Bold-66" x="670.410156"/>
      <use xlink:href="#DejaVuSans-Bold-20" x="713.916016"/>
      <use xlink:href="#DejaVuSans-Bold-68" x="748.730469"/>
      <use xlink:href="#DejaVuSans-Bold-61" x="819.921875"/>
      <use xlink:href="#DejaVuSans-Bold-77" x="887.402344"/>
      <use xlink:href="#DejaVuSans-Bold-6b" x="979.785156"/>
      <use xlink:href="#DejaVuSans-Bold-73" x="1046.289062"/>
      <use xlink:href="#DejaVuSans-Bold-20" x="1105.810547"/>
      <use xlink:href="#DejaVuSans-Bold-28" x="1140.625"/>
      <use xlink:href="#DejaVuSans-Bold-6b" x="1186.328125"/>
      <use xlink:href="#DejaVuSans-Bold-2f" x="1252.832031"/>
      <use xlink:href="#DejaVuSans-Bold-5a" x="1289.355469"/>
      <use xlink:href="#DejaVuSans-Bold-29" x="1361.865234"/>
     </g>
    </g>
   </g>
   <g id="matplotlib.axis_2">
    <g id="ytick_1">
     <g id="line2d_21">
      <defs>
       <path id="m895c923309" d="M 0 0 
L 7 0 
" style="stroke: #000000; stroke-width: 2"/>
      </defs>
      <g>
       <use xlink:href="#m895c923309" x="83.278906" y="216.690183" style="stroke: #000000; stroke-width: 2"/>
      </g>
     </g>
     <g id="line2d_22">
      <defs>
       <path id="m93fb7a8f20" d="M 0 0 
L -7 0 
" style="stroke: #000000; stroke-width: 2"/>
      </defs>
      <g>
       <use xlink:href="#m93fb7a8f20" x="306.478906" y="216.690183" style="stroke: #000000; stroke-width: 2"/>
      </g>
     </g>
     <g id="text_7">
      <!-- 0.000 -->
      <g transform="translate(25.834375 222.389012)scale(0.15 -0.15)">
       <use xlink:href="#DejaVuSans-Bold-30"/>
       <use xlink:href="#DejaVuSans-Bold-2e" x="69.580078"/>
       <use xlink:href="#DejaVuSans-Bold-30" x="107.568359"/>
       <use xlink:href="#DejaVuSans-Bold-30" x="177.148438"/>
       <use xlink:href="#DejaVuSans-Bold-30" x="246.728516"/>
      </g>
     </g>
    </g>
    <g id="ytick_2">
     <g id="line2d_23">
      <g>
       <use xlink:href="#m895c923309" x="83.278906" y="178.096304" style="stroke: #000000; stroke-width: 2"/>
      </g>
     </g>
     <g id="line2d_24">
      <g>
       <use xlink:href="#m93fb7a8f20" x="306.478906" y="178.096304" style="stroke: #000000; stroke-width: 2"/>
      </g>
     </g>
     <g id="text_8">
      <!-- 0.025 -->
      <g transform="translate(25.834375 183.795132)scale(0.15 -0.15)">
       <use xlink:href="#DejaVuSans-Bold-30"/>
       <use xlink:href="#DejaVuSans-Bold-2e" x="69.580078"/>
       <use xlink:href="#DejaVuSans-Bold-30" x="107.568359"/>
       <use xlink:href="#DejaVuSans-Bold-32" x="177.148438"/>
       <use xlink:href="#DejaVuSans-Bold-35" x="246.728516"/>
      </g>
     </g>
    </g>
    <g id="ytick_3">
     <g id="line2d_25">
      <g>
       <use xlink:href="#m895c923309" x="83.278906" y="139.502425" style="stroke: #000000; stroke-width: 2"/>
      </g>
     </g>
     <g id="line2d_26">
      <g>
       <use xlink:href="#m93fb7a8f20" x="306.478906" y="139.502425" style="stroke: #000000; stroke-width: 2"/>
      </g>
     </g>
     <g id="text_9">
      <!-- 0.050 -->
      <g transform="translate(25.834375 145.201253)scale(0.15 -0.15)">
       <use xlink:href="#DejaVuSans-Bold-30"/>
       <use xlink:href="#DejaVuSans-Bold-2e" x="69.580078"/>
       <use xlink:href="#DejaVuSans-Bold-30" x="107.568359"/>
       <use xlink:href="#DejaVuSans-Bold-35" x="177.148438"/>
       <use xlink:href="#DejaVuSans-Bold-30" x="246.728516"/>
      </g>
     </g>
    </g>
    <g id="ytick_4">
     <g id="line2d_27">
      <g>
       <use xlink:href="#m895c923309" x="83.278906" y="100.908545" style="stroke: #000000; stroke-width: 2"/>
      </g>
     </g>
     <g id="line2d_28">
      <g>
       <use xlink:href="#m93fb7a8f20" x="306.478906" y="100.908545" style="stroke: #000000; stroke-width: 2"/>
      </g>
     </g>
     <g id="text_10">
      <!-- 0.075 -->
      <g transform="translate(25.834375 106.607373)scale(0.15 -0.15)">
       <use xlink:href="#DejaVuSans-Bold-30"/>
       <use xlink:href="#DejaVuSans-Bold-2e" x="69.580078"/>
       <use xlink:href="#DejaVuSans-Bold-30" x="107.568359"/>
       <use xlink:href="#DejaVuSans-Bold-37" x="177.148438"/>
       <use xlink:href="#DejaVuSans-Bold-35" x="246.728516"/>
      </g>
     </g>
    </g>
    <g id="ytick_5">
     <g id="line2d_29">
      <g>
       <use xlink:href="#m895c923309" x="83.278906" y="62.314666" style="stroke: #000000; stroke-width: 2"/>
      </g>
     </g>
     <g id="line2d_30">
      <g>
       <use xlink:href="#m93fb7a8f20" x="306.478906" y="62.314666" style="stroke: #000000; stroke-width: 2"/>
      </g>
     </g>
     <g id="text_11">
      <!-- 0.100 -->
      <g transform="translate(25.834375 68.013494)scale(0.15 -0.15)">
       <use xlink:href="#DejaVuSans-Bold-30"/>
       <use xlink:href="#DejaVuSans-Bold-2e" x="69.580078"/>
       <use xlink:href="#DejaVuSans-Bold-31" x="107.568359"/>
       <use xlink:href="#DejaVuSans-Bold-30" x="177.148438"/>
       <use xlink:href="#DejaVuSans-Bold-30" x="246.728516"/>
      </g>
     </g>
    </g>
    <g id="ytick_6">
     <g id="line2d_31">
      <g>
       <use xlink:href="#m895c923309" x="83.278906" y="23.720786" style="stroke: #000000; stroke-width: 2"/>
      </g>
     </g>
     <g id="line2d_32">
      <g>
       <use xlink:href="#m93fb7a8f20" x="306.478906" y="23.720786" style="stroke: #000000; stroke-width: 2"/>
      </g>
     </g>
     <g id="text_12">
      <!-- 0.125 -->
      <g transform="translate(25.834375 29.419614)scale(0.15 -0.15)">
       <use xlink:href="#DejaVuSans-Bold-30"/>
       <use xlink:href="#DejaVuSans-Bold-2e" x="69.580078"/>
       <use xlink:href="#DejaVuSans-Bold-31" x="107.568359"/>
       <use xlink:href="#DejaVuSans-Bold-32" x="177.148438"/>
       <use xlink:href="#DejaVuSans-Bold-35" x="246.728516"/>
      </g>
     </g>
    </g>
    <g id="ytick_7">
     <g id="line2d_33">
      <defs>
       <path id="m7c486ba27c" d="M 0 0 
L 4 0 
" style="stroke: #000000; stroke-width: 2"/>
      </defs>
      <g>
       <use xlink:href="#m7c486ba27c" x="83.278906" y="235.987123" style="stroke: #000000; stroke-width: 2"/>
      </g>
     </g>
     <g id="line2d_34">
      <defs>
       <path id="mfa2ede86c9" d="M 0 0 
L -4 0 
" style="stroke: #000000; stroke-width: 2"/>
      </defs>
      <g>
       <use xlink:href="#mfa2ede86c9" x="306.478906" y="235.987123" style="stroke: #000000; stroke-width: 2"/>
      </g>
     </g>
    </g>
    <g id="ytick_8">
     <g id="line2d_35">
      <g>
       <use xlink:href="#m7c486ba27c" x="83.278906" y="197.393244" style="stroke: #000000; stroke-width: 2"/>
      </g>
     </g>
     <g id="line2d_36">
      <g>
       <use xlink:href="#mfa2ede86c9" x="306.478906" y="197.393244" style="stroke: #000000; stroke-width: 2"/>
      </g>
     </g>
    </g>
    <g id="ytick_9">
     <g id="line2d_37">
      <g>
       <use xlink:href="#m7c486ba27c" x="83.278906" y="158.799364" style="stroke: #000000; stroke-width: 2"/>
      </g>
     </g>
     <g id="line2d_38">
      <g>
       <use xlink:href="#mfa2ede86c9" x="306.478906" y="158.799364" style="stroke: #000000; stroke-width: 2"/>
      </g>
     </g>
    </g>
    <g id="ytick_10">
     <g id="line2d_39">
      <g>
       <use xlink:href="#m7c486ba27c" x="83.278906" y="120.205485" style="stroke: #000000; stroke-width: 2"/>
      </g>
     </g>
     <g id="line2d_40">
      <g>
       <use xlink:href="#mfa2ede86c9" x="306.478906" y="120.205485" style="stroke: #000000; stroke-width: 2"/>
      </g>
     </g>
    </g>
    <g id="ytick_11">
     <g id="line2d_41">
      <g>
       <use xlink:href="#m7c486ba27c" x="83.278906" y="81.611605" style="stroke: #000000; stroke-width: 2"/>
      </g>
     </g>
     <g id="line2d_42">
      <g>
       <use xlink:href="#mfa2ede86c9" x="306.478906" y="81.611605" style="stroke: #000000; stroke-width: 2"/>
      </g>
     </g>
    </g>
    <g id="ytick_12">
     <g id="line2d_43">
      <g>
       <use xlink:href="#m7c486ba27c" x="83.278906" y="43.017726" style="stroke: #000000; stroke-width: 2"/>
      </g>
     </g>
     <g id="line2d_44">
      <g>
       <use xlink:href="#mfa2ede86c9" x="306.478906" y="43.017726" style="stroke: #000000; stroke-width: 2"/>
      </g>
     </g>
    </g>
    <g id="text_13">
     <!-- gradient of selection (G) -->
     <g transform="translate(18.597656 236.83875)rotate(-90)scale(0.15 -0.15)">
      <defs>
       <path id="DejaVuSans-Bold-67" d="M 2919 594 
Q 2688 288 2409 144 
Q 2131 0 1766 0 
Q 1125 0 706 504 
Q 288 1009 288 1791 
Q 288 2575 706 3076 
Q 1125 3578 1766 3578 
Q 2131 3578 2409 3434 
Q 2688 3291 2919 2981 
L 2919 3500 
L 4044 3500 
L 4044 353 
Q 4044 -491 3511 -936 
Q 2978 -1381 1966 -1381 
Q 1638 -1381 1331 -1331 
Q 1025 -1281 716 -1178 
L 716 -306 
Q 1009 -475 1290 -558 
Q 1572 -641 1856 -641 
Q 2406 -641 2662 -400 
Q 2919 -159 2919 353 
L 2919 594 
z
M 2181 2772 
Q 1834 2772 1640 2515 
Q 1447 2259 1447 1791 
Q 1447 1309 1634 1061 
Q 1822 813 2181 813 
Q 2531 813 2725 1069 
Q 2919 1325 2919 1791 
Q 2919 2259 2725 2515 
Q 2531 2772 2181 2772 
z
" transform="scale(0.015625)"/>
       <path id="DejaVuSans-Bold-64" d="M 2919 2988 
L 2919 4863 
L 4044 4863 
L 4044 0 
L 2919 0 
L 2919 506 
Q 2688 197 2409 53 
Q 2131 -91 1766 -91 
Q 1119 -91 703 423 
Q 288 938 288 1747 
Q 288 2556 703 3070 
Q 1119 3584 1766 3584 
Q 2128 3584 2408 3439 
Q 2688 3294 2919 2988 
z
M 2181 722 
Q 2541 722 2730 984 
Q 2919 1247 2919 1747 
Q 2919 2247 2730 2509 
Q 2541 2772 2181 2772 
Q 1825 2772 1636 2509 
Q 1447 2247 1447 1747 
Q 1447 1247 1636 984 
Q 1825 722 2181 722 
z
" transform="scale(0.015625)"/>
       <path id="DejaVuSans-Bold-69" d="M 538 3500 
L 1656 3500 
L 1656 0 
L 538 0 
L 538 3500 
z
M 538 4863 
L 1656 4863 
L 1656 3950 
L 538 3950 
L 538 4863 
z
" transform="scale(0.015625)"/>
       <path id="DejaVuSans-Bold-74" d="M 1759 4494 
L 1759 3500 
L 2913 3500 
L 2913 2700 
L 1759 2700 
L 1759 1216 
Q 1759 972 1856 886 
Q 1953 800 2241 800 
L 2816 800 
L 2816 0 
L 1856 0 
Q 1194 0 917 276 
Q 641 553 641 1216 
L 641 2700 
L 84 2700 
L 84 3500 
L 641 3500 
L 641 4494 
L 1759 4494 
z
" transform="scale(0.015625)"/>
       <path id="DejaVuSans-Bold-6c" d="M 538 4863 
L 1656 4863 
L 1656 0 
L 538 0 
L 538 4863 
z
" transform="scale(0.015625)"/>
       <path id="DejaVuSans-Bold-47" d="M 4781 347 
Q 4331 128 3847 18 
Q 3363 -91 2847 -91 
Q 1681 -91 1000 561 
Q 319 1213 319 2328 
Q 319 3456 1012 4103 
Q 1706 4750 2913 4750 
Q 3378 4750 3804 4662 
Q 4231 4575 4609 4403 
L 4609 3438 
Q 4219 3659 3833 3768 
Q 3447 3878 3059 3878 
Q 2341 3878 1952 3476 
Q 1563 3075 1563 2328 
Q 1563 1588 1938 1184 
Q 2313 781 3003 781 
Q 3191 781 3352 804 
Q 3513 828 3641 878 
L 3641 1784 
L 2906 1784 
L 2906 2591 
L 4781 2591 
L 4781 347 
z
" transform="scale(0.015625)"/>
      </defs>
      <use xlink:href="#DejaVuSans-Bold-67"/>
      <use xlink:href="#DejaVuSans-Bold-72" x="71.582031"/>
      <use xlink:href="#DejaVuSans-Bold-61" x="120.898438"/>
      <use xlink:href="#DejaVuSans-Bold-64" x="188.378906"/>
      <use xlink:href="#DejaVuSans-Bold-69" x="259.960938"/>
      <use xlink:href="#DejaVuSans-Bold-65" x="294.238281"/>
      <use xlink:href="#DejaVuSans-Bold-6e" x="362.060547"/>
      <use xlink:href="#DejaVuSans-Bold-74" x="433.251953"/>
      <use xlink:href="#DejaVuSans-Bold-20" x="481.054688"/>
      <use xlink:href="#DejaVuSans-Bold-6f" x="515.869141"/>
      <use xlink:href="#DejaVuSans-Bold-66" x="584.570312"/>
      <use xlink:href="#DejaVuSans-Bold-20" x="628.076172"/>
      <use xlink:href="#DejaVuSans-Bold-73" x="662.890625"/>
      <use xlink:href="#DejaVuSans-Bold-65" x="722.412109"/>
      <use xlink:href="#DejaVuSans-Bold-6c" x="790.234375"/>
      <use xlink:href="#DejaVuSans-Bold-65" x="824.511719"/>
      <use xlink:href="#DejaVuSans-Bold-63" x="892.333984"/>
      <use xlink:href="#DejaVuSans-Bold-74" x="951.611328"/>
      <use xlink:href="#DejaVuSans-Bold-69" x="999.414062"/>
      <use xlink:href="#DejaVuSans-Bold-6f" x="1033.691406"/>
      <use xlink:href="#DejaVuSans-Bold-6e" x="1102.392578"/>
      <use xlink:href="#DejaVuSans-Bold-20" x="1173.583984"/>
      <use xlink:href="#DejaVuSans-Bold-28" x="1208.398438"/>
      <use xlink:href="#DejaVuSans-Bold-47" x="1254.101562"/>
      <use xlink:href="#DejaVuSans-Bold-29" x="1336.181641"/>
     </g>
    </g>
   </g>
   <g id="patch_3">
    <path d="M 83.278906 244.078125 
L 83.278906 22.318125 
" style="fill: none; stroke: #000000; stroke-width: 2; stroke-linejoin: miter; stroke-linecap: square"/>
   </g>
   <g id="patch_4">
    <path d="M 306.478906 244.078125 
L 306.478906 22.318125 
" style="fill: none; stroke: #000000; stroke-width: 2; stroke-linejoin: miter; stroke-linecap: square"/>
   </g>
   <g id="patch_5">
    <path d="M 83.278906 244.078125 
L 306.478906 244.078125 
" style="fill: none; stroke: #000000; stroke-width: 2; stroke-linejoin: miter; stroke-linecap: square"/>
   </g>
   <g id="patch_6">
    <path d="M 83.278906 22.318125 
L 306.478906 22.318125 
" style="fill: none; stroke: #000000; stroke-width: 2; stroke-linejoin: miter; stroke-linecap: square"/>
   </g>
   <g id="text_14">
    <!-- Hawk-Dove game stochastic dynamics -->
    <g transform="translate(78.719844 16.318125)scale(0.12 -0.12)">
     <defs>
      <path id="DejaVuSans-48" d="M 628 4666 
L 1259 4666 
L 1259 2753 
L 3553 2753 
L 3553 4666 
L 4184 4666 
L 4184 0 
L 3553 0 
L 3553 2222 
L 1259 2222 
L 1259 0 
L 628 0 
L 628 4666 
z
" transform="scale(0.015625)"/>
      <path id="DejaVuSans-61" d="M 2194 1759 
Q 1497 1759 1228 1600 
Q 959 1441 959 1056 
Q 959 750 1161 570 
Q 1363 391 1709 391 
Q 2188 391 2477 730 
Q 2766 1069 2766 1631 
L 2766 1759 
L 2194 1759 
z
M 3341 1997 
L 3341 0 
L 2766 0 
L 2766 531 
Q 2569 213 2275 61 
Q 1981 -91 1556 -91 
Q 1019 -91 701 211 
Q 384 513 384 1019 
Q 384 1609 779 1909 
Q 1175 2209 1959 2209 
L 2766 2209 
L 2766 2266 
Q 2766 2663 2505 2880 
Q 2244 3097 1772 3097 
Q 1472 3097 1187 3025 
Q 903 2953 641 2809 
L 641 3341 
Q 956 3463 1253 3523 
Q 1550 3584 1831 3584 
Q 2591 3584 2966 3190 
Q 3341 2797 3341 1997 
z
" transform="scale(0.015625)"/>
      <path id="DejaVuSans-77" d="M 269 3500 
L 844 3500 
L 1563 769 
L 2278 3500 
L 2956 3500 
L 3675 769 
L 4391 3500 
L 4966 3500 
L 4050 0 
L 3372 0 
L 2619 2869 
L 1863 0 
L 1184 0 
L 269 3500 
z
" transform="scale(0.015625)"/>
      <path id="DejaVuSans-6b" d="M 581 4863 
L 1159 4863 
L 1159 1991 
L 2875 3500 
L 3609 3500 
L 1753 1863 
L 3688 0 
L 2938 0 
L 1159 1709 
L 1159 0 
L 581 0 
L 581 4863 
z
" transform="scale(0.015625)"/>
      <path id="DejaVuSans-2d" d="M 313 2009 
L 1997 2009 
L 1997 1497 
L 313 1497 
L 313 2009 
z
" transform="scale(0.015625)"/>
      <path id="DejaVuSans-44" d="M 1259 4147 
L 1259 519 
L 2022 519 
Q 2988 519 3436 956 
Q 3884 1394 3884 2338 
Q 3884 3275 3436 3711 
Q 2988 4147 2022 4147 
L 1259 4147 
z
M 628 4666 
L 1925 4666 
Q 3281 4666 3915 4102 
Q 4550 3538 4550 2338 
Q 4550 1131 3912 565 
Q 3275 0 1925 0 
L 628 0 
L 628 4666 
z
" transform="scale(0.015625)"/>
      <path id="DejaVuSans-6f" d="M 1959 3097 
Q 1497 3097 1228 2736 
Q 959 2375 959 1747 
Q 959 1119 1226 758 
Q 1494 397 1959 397 
Q 2419 397 2687 759 
Q 2956 1122 2956 1747 
Q 2956 2369 2687 2733 
Q 2419 3097 1959 3097 
z
M 1959 3584 
Q 2709 3584 3137 3096 
Q 3566 2609 3566 1747 
Q 3566 888 3137 398 
Q 2709 -91 1959 -91 
Q 1206 -91 779 398 
Q 353 888 353 1747 
Q 353 2609 779 3096 
Q 1206 3584 1959 3584 
z
" transform="scale(0.015625)"/>
      <path id="DejaVuSans-76" d="M 191 3500 
L 800 3500 
L 1894 563 
L 2988 3500 
L 3597 3500 
L 2284 0 
L 1503 0 
L 191 3500 
z
" transform="scale(0.015625)"/>
      <path id="DejaVuSans-65" d="M 3597 1894 
L 3597 1613 
L 953 1613 
Q 991 1019 1311 708 
Q 1631 397 2203 397 
Q 2534 397 2845 478 
Q 3156 559 3463 722 
L 3463 178 
Q 3153 47 2828 -22 
Q 2503 -91 2169 -91 
Q 1331 -91 842 396 
Q 353 884 353 1716 
Q 353 2575 817 3079 
Q 1281 3584 2069 3584 
Q 2775 3584 3186 3129 
Q 3597 2675 3597 1894 
z
M 3022 2063 
Q 3016 2534 2758 2815 
Q 2500 3097 2075 3097 
Q 1594 3097 1305 2825 
Q 1016 2553 972 2059 
L 3022 2063 
z
" transform="scale(0.015625)"/>
      <path id="DejaVuSans-20" transform="scale(0.015625)"/>
      <path id="DejaVuSans-67" d="M 2906 1791 
Q 2906 2416 2648 2759 
Q 2391 3103 1925 3103 
Q 1463 3103 1205 2759 
Q 947 2416 947 1791 
Q 947 1169 1205 825 
Q 1463 481 1925 481 
Q 2391 481 2648 825 
Q 2906 1169 2906 1791 
z
M 3481 434 
Q 3481 -459 3084 -895 
Q 2688 -1331 1869 -1331 
Q 1566 -1331 1297 -1286 
Q 1028 -1241 775 -1147 
L 775 -588 
Q 1028 -725 1275 -790 
Q 1522 -856 1778 -856 
Q 2344 -856 2625 -561 
Q 2906 -266 2906 331 
L 2906 616 
Q 2728 306 2450 153 
Q 2172 0 1784 0 
Q 1141 0 747 490 
Q 353 981 353 1791 
Q 353 2603 747 3093 
Q 1141 3584 1784 3584 
Q 2172 3584 2450 3431 
Q 2728 3278 2906 2969 
L 2906 3500 
L 3481 3500 
L 3481 434 
z
" transform="scale(0.015625)"/>
      <path id="DejaVuSans-6d" d="M 3328 2828 
Q 3544 3216 3844 3400 
Q 4144 3584 4550 3584 
Q 5097 3584 5394 3201 
Q 5691 2819 5691 2113 
L 5691 0 
L 5113 0 
L 5113 2094 
Q 5113 2597 4934 2840 
Q 4756 3084 4391 3084 
Q 3944 3084 3684 2787 
Q 3425 2491 3425 1978 
L 3425 0 
L 2847 0 
L 2847 2094 
Q 2847 2600 2669 2842 
Q 2491 3084 2119 3084 
Q 1678 3084 1418 2786 
Q 1159 2488 1159 1978 
L 1159 0 
L 581 0 
L 581 3500 
L 1159 3500 
L 1159 2956 
Q 1356 3278 1631 3431 
Q 1906 3584 2284 3584 
Q 2666 3584 2933 3390 
Q 3200 3197 3328 2828 
z
" transform="scale(0.015625)"/>
      <path id="DejaVuSans-73" d="M 2834 3397 
L 2834 2853 
Q 2591 2978 2328 3040 
Q 2066 3103 1784 3103 
Q 1356 3103 1142 2972 
Q 928 2841 928 2578 
Q 928 2378 1081 2264 
Q 1234 2150 1697 2047 
L 1894 2003 
Q 2506 1872 2764 1633 
Q 3022 1394 3022 966 
Q 3022 478 2636 193 
Q 2250 -91 1575 -91 
Q 1294 -91 989 -36 
Q 684 19 347 128 
L 347 722 
Q 666 556 975 473 
Q 1284 391 1588 391 
Q 1994 391 2212 530 
Q 2431 669 2431 922 
Q 2431 1156 2273 1281 
Q 2116 1406 1581 1522 
L 1381 1569 
Q 847 1681 609 1914 
Q 372 2147 372 2553 
Q 372 3047 722 3315 
Q 1072 3584 1716 3584 
Q 2034 3584 2315 3537 
Q 2597 3491 2834 3397 
z
" transform="scale(0.015625)"/>
      <path id="DejaVuSans-74" d="M 1172 4494 
L 1172 3500 
L 2356 3500 
L 2356 3053 
L 1172 3053 
L 1172 1153 
Q 1172 725 1289 603 
Q 1406 481 1766 481 
L 2356 481 
L 2356 0 
L 1766 0 
Q 1100 0 847 248 
Q 594 497 594 1153 
L 594 3053 
L 172 3053 
L 172 3500 
L 594 3500 
L 594 4494 
L 1172 4494 
z
" transform="scale(0.015625)"/>
      <path id="DejaVuSans-63" d="M 3122 3366 
L 3122 2828 
Q 2878 2963 2633 3030 
Q 2388 3097 2138 3097 
Q 1578 3097 1268 2742 
Q 959 2388 959 1747 
Q 959 1106 1268 751 
Q 1578 397 2138 397 
Q 2388 397 2633 464 
Q 2878 531 3122 666 
L 3122 134 
Q 2881 22 2623 -34 
Q 2366 -91 2075 -91 
Q 1284 -91 818 406 
Q 353 903 353 1747 
Q 353 2603 823 3093 
Q 1294 3584 2113 3584 
Q 2378 3584 2631 3529 
Q 2884 3475 3122 3366 
z
" transform="scale(0.015625)"/>
      <path id="DejaVuSans-68" d="M 3513 2113 
L 3513 0 
L 2938 0 
L 2938 2094 
Q 2938 2591 2744 2837 
Q 2550 3084 2163 3084 
Q 1697 3084 1428 2787 
Q 1159 2491 1159 1978 
L 1159 0 
L 581 0 
L 581 4863 
L 1159 4863 
L 1159 2956 
Q 1366 3272 1645 3428 
Q 1925 3584 2291 3584 
Q 2894 3584 3203 3211 
Q 3513 2838 3513 2113 
z
" transform="scale(0.015625)"/>
      <path id="DejaVuSans-69" d="M 603 3500 
L 1178 3500 
L 1178 0 
L 603 0 
L 603 3500 
z
M 603 4863 
L 1178 4863 
L 1178 4134 
L 603 4134 
L 603 4863 
z
" transform="scale(0.015625)"/>
      <path id="DejaVuSans-64" d="M 2906 2969 
L 2906 4863 
L 3481 4863 
L 3481 0 
L 2906 0 
L 2906 525 
Q 2725 213 2448 61 
Q 2172 -91 1784 -91 
Q 1150 -91 751 415 
Q 353 922 353 1747 
Q 353 2572 751 3078 
Q 1150 3584 1784 3584 
Q 2172 3584 2448 3432 
Q 2725 3281 2906 2969 
z
M 947 1747 
Q 947 1113 1208 752 
Q 1469 391 1925 391 
Q 2381 391 2643 752 
Q 2906 1113 2906 1747 
Q 2906 2381 2643 2742 
Q 2381 3103 1925 3103 
Q 1469 3103 1208 2742 
Q 947 2381 947 1747 
z
" transform="scale(0.015625)"/>
      <path id="DejaVuSans-79" d="M 2059 -325 
Q 1816 -950 1584 -1140 
Q 1353 -1331 966 -1331 
L 506 -1331 
L 506 -850 
L 844 -850 
Q 1081 -850 1212 -737 
Q 1344 -625 1503 -206 
L 1606 56 
L 191 3500 
L 800 3500 
L 1894 763 
L 2988 3500 
L 3597 3500 
L 2059 -325 
z
" transform="scale(0.015625)"/>
      <path id="DejaVuSans-6e" d="M 3513 2113 
L 3513 0 
L 2938 0 
L 2938 2094 
Q 2938 2591 2744 2837 
Q 2550 3084 2163 3084 
Q 1697 3084 1428 2787 
Q 1159 2491 1159 1978 
L 1159 0 
L 581 0 
L 581 3500 
L 1159 3500 
L 1159 2956 
Q 1366 3272 1645 3428 
Q 1925 3584 2291 3584 
Q 2894 3584 3203 3211 
Q 3513 2838 3513 2113 
z
" transform="scale(0.015625)"/>
     </defs>
     <use xlink:href="#DejaVuSans-48"/>
     <use xlink:href="#DejaVuSans-61" x="75.195312"/>
     <use xlink:href="#DejaVuSans-77" x="136.474609"/>
     <use xlink:href="#DejaVuSans-6b" x="218.261719"/>
     <use xlink:href="#DejaVuSans-2d" x="276.171875"/>
     <use xlink:href="#DejaVuSans-44" x="312.255859"/>
     <use xlink:href="#DejaVuSans-6f" x="389.257812"/>
     <use xlink:href="#DejaVuSans-76" x="450.439453"/>
     <use xlink:href="#DejaVuSans-65" x="509.619141"/>
     <use xlink:href="#DejaVuSans-20" x="571.142578"/>
     <use xlink:href="#DejaVuSans-67" x="602.929688"/>
     <use xlink:href="#DejaVuSans-61" x="666.40625"/>
     <use xlink:href="#DejaVuSans-6d" x="727.685547"/>
     <use xlink:href="#DejaVuSans-65" x="825.097656"/>
     <use xlink:href="#DejaVuSans-20" x="886.621094"/>
     <use xlink:href="#DejaVuSans-73" x="918.408203"/>
     <use xlink:href="#DejaVuSans-74" x="970.507812"/>
     <use xlink:href="#DejaVuSans-6f" x="1009.716797"/>
     <use xlink:href="#DejaVuSans-63" x="1070.898438"/>
     <use xlink:href="#DejaVuSans-68" x="1125.878906"/>
     <use xlink:href="#DejaVuSans-61" x="1189.257812"/>
     <use xlink:href="#DejaVuSans-73" x="1250.537109"/>
     <use xlink:href="#DejaVuSans-74" x="1302.636719"/>
     <use xlink:href="#DejaVuSans-69" x="1341.845703"/>
     <use xlink:href="#DejaVuSans-63" x="1369.628906"/>
     <use xlink:href="#DejaVuSans-20" x="1424.609375"/>
     <use xlink:href="#DejaVuSans-64" x="1456.396484"/>
     <use xlink:href="#DejaVuSans-79" x="1519.873047"/>
     <use xlink:href="#DejaVuSans-6e" x="1579.052734"/>
     <use xlink:href="#DejaVuSans-61" x="1642.431641"/>
     <use xlink:href="#DejaVuSans-6d" x="1703.710938"/>
     <use xlink:href="#DejaVuSans-69" x="1801.123047"/>
     <use xlink:href="#DejaVuSans-63" x="1828.90625"/>
     <use xlink:href="#DejaVuSans-73" x="1883.886719"/>
    </g>
   </g>
  </g>
 </g>
 <defs>
  <clipPath id="p156ac27732">
   <rect x="83.278906" y="22.318125" width="223.2" height="221.76"/>
  </clipPath>
 </defs>
</svg>
